<?xml version="1.0" encoding="UTF-8" standalone="no"?>
<svg width="26px" height="26px" viewBox="0 0 26 26" version="1.1" xmlns="http://www.w3.org/2000/svg" xmlns:xlink="http://www.w3.org/1999/xlink" xmlns:sketch="http://www.bohemiancoding.com/sketch/ns">
    <!-- Generator: Sketch 3.1.1 (8761) - http://www.bohemiancoding.com/sketch -->
    <title>Check Mark Circled 1</title>
    <desc>Created with Sketch.</desc>
    <defs></defs>
    <g id="Page-1" stroke="none" stroke-width="1" fill="none" fill-rule="evenodd" sketch:type="MSPage">
        <g id="Check-Mark-Circled-1" sketch:type="MSLayerGroup">
            <path d="M17.8083333,7.84166667 L10.75,16.3583333 L6.39166667,12.7258333 C6.03333333,12.4333333 5.50833333,12.4758333 5.21666667,12.8333333 C4.925,13.1833333 4.96666667,13.7083333 5.325,14.0091667 L10.9666667,18.7083333 L19.0916667,8.90833333 C19.3833333,8.55 19.3333333,8.025 18.9833333,7.73333333 C18.625,7.4425 18.1,7.49166667 17.8083333,7.84166667" id="Fill-2349" fill="#7ED321" sketch:type="MSShapeGroup"></path>
            <path d="M12.525,23.3666667 C6.55,23.3666667 1.69166667,18.5083333 1.69166667,12.5341667 C1.69166667,6.55833333 6.55,1.7 12.525,1.7 C18.5,1.7 23.3583333,6.55833333 23.3583333,12.5341667 C23.3583333,18.5083333 18.5,23.3666667 12.525,23.3666667 L12.525,23.3666667 Z M12.525,0.0341666667 C5.63333333,0.0341666667 0.025,5.6425 0.025,12.5341667 C0.025,19.4258333 5.63333333,25.0341667 12.525,25.0341667 C19.4166667,25.0341667 25.025,19.4258333 25.025,12.5341667 C25.025,5.6425 19.4166667,0.0341666667 12.525,0.0341666667 L12.525,0.0341666667 Z" id="Fill-2351" fill="#6E6C6F" sketch:type="MSShapeGroup"></path>
        </g>
    </g>
</svg>