<?xml version="1.0" encoding="UTF-8" standalone="no"?>
<svg width="97px" height="97px" viewBox="0 0 97 97" version="1.1" xmlns="http://www.w3.org/2000/svg" xmlns:xlink="http://www.w3.org/1999/xlink" xmlns:sketch="http://www.bohemiancoding.com/sketch/ns">
    <!-- Generator: Sketch 3.1 (8751) - http://www.bohemiancoding.com/sketch -->
    <title>Oval 19 + Fill 2152</title>
    <desc>Created with Sketch.</desc>
    <defs></defs>
    <g id="Page-1" stroke="none" stroke-width="1" fill="none" fill-rule="evenodd" sketch:type="MSPage">
        <g id="FEATURES" sketch:type="MSLayerGroup" transform="translate(-418.000000, -818.000000)">
            <g id="Icons" transform="translate(419.000000, 342.000000)" sketch:type="MSShapeGroup">
                <g id="Oval-19-+-Fill-2152" transform="translate(0.000000, 477.000000)">
                    <circle id="Oval-19" stroke="#FF3A32" stroke-width="1.55737705" cx="47.5" cy="47.5" r="47.5"></circle>
                    <path d="M81.705,15.06675 C81.1191667,17.44175 78.9025,24.6791667 73.2341667,27.8458333 C66.2991667,26.41925 59.57,30.205 58.145,31.9450833 C57.3691667,32.8950833 57.575,33.68675 57.7491667,34.0825833 C58.0183333,34.651 58.5566667,35.01675 59.2216667,35.0800833 C59.9341667,35.7450833 61.1691667,38.8325833 61.945,41.8884167 C62.0083333,42.1734167 62.1508333,42.4283333 62.3566667,42.6183333 C64.3041667,44.56425 67.2016667,44.0100833 68.88,43.4559167 C69.7033333,45.7359167 66.505,49.3475 63.1166667,52.87675 C60.8208333,55.25175 59.9025,56.2650833 59.9025,57.47 C59.9025,58.9409167 60.9791667,59.8925 61.85,60.6509167 C62.1825,60.9375 62.8,61.46 62.8475,61.66425 C62.8475,61.66425 62.8,61.8875 62.3566667,62.3450833 C59.6966667,65.0035 57.005,65.93925 56.9891667,65.9550833 C56.34,66.1783333 55.8966667,66.7784167 55.8966667,67.45925 C55.8966667,72.9850833 52.4608333,75.81925 45.6525,75.8525 C44.3066667,75.0766667 41.1241667,68.9333333 41.0925,67.45925 C41.0925,66.8259167 41.5041667,66.0184167 41.9316667,65.165 C42.47,64.0725 43.1033333,62.8359167 43.1033333,61.4758333 C43.1033333,59.28925 40.4275,56.2191667 39.0975,54.82425 C38.9866667,52.3875 38.3216667,50.6125833 37.0708333,49.4250833 C34.9491667,47.4300833 31.8141667,47.6058333 28.505,47.79425 C27.5391667,47.84175 26.5416667,47.9066667 25.5441667,47.9066667 C21.2216667,47.9066667 21.1425,41.76175 21.1425,41.51 C21.1425,41.38175 21.2375,28.8100833 29.8508333,27.08425 C36.2,25.816 37.8466667,27.2109167 37.9258333,27.526 C37.9258333,27.9550833 38.1,28.3525 38.4008333,28.65175 C41.805,32.0575 47.0933333,30.8225 51.3366667,29.83925 C52.9516667,29.45925 54.4558333,29.1109167 55.485,29.1109167 C56.2766667,29.1109167 56.9416667,28.5250833 57.0525,27.74925 C57.67,23.5059167 58.3033333,16.11175 55.7383333,14.2608333 C55.2475,13.9109167 54.2025,13.4200833 52.7775,14.1325833 C51.21,14.92425 49.7216667,15.0366667 48.7083333,14.4635 C47.5366667,13.83175 47.1725,12.45425 47.0775,11.40925 C46.7766667,8.18083333 56.15,4.66425 62.8475,3.22341667 C70.115,5.51925 76.575,9.65175 81.705,15.06675 L81.705,15.06675 Z" id="Fill-3065" fill="#FF3A32"></path>
                </g>
            </g>
        </g>
    </g>
</svg>