<?xml version="1.0" encoding="UTF-8" standalone="no"?>
<svg width="97px" height="97px" viewBox="0 0 97 97" version="1.1" xmlns="http://www.w3.org/2000/svg" xmlns:xlink="http://www.w3.org/1999/xlink" xmlns:sketch="http://www.bohemiancoding.com/sketch/ns">
    <!-- Generator: Sketch 3.1 (8751) - http://www.bohemiancoding.com/sketch -->
    <title>Oval 19 + Folders</title>
    <desc>Created with Sketch.</desc>
    <defs></defs>
    <g id="Page-1" stroke="none" stroke-width="1" fill="none" fill-rule="evenodd" sketch:type="MSPage">
        <g id="FEATURES" sketch:type="MSLayerGroup" transform="translate(-1129.000000, -578.000000)" stroke="#FF3A32">
            <g id="Icons" transform="translate(419.000000, 342.000000)" sketch:type="MSShapeGroup">
                <g id="Oval-19-+-Folders" transform="translate(711.000000, 237.000000)">
                    <circle id="Oval-19" stroke-width="1.55737705" cx="47.5" cy="47.5" r="47.5"></circle>
                    <g id="Folders" transform="translate(23.360656, 28.032787)" stroke-width="1.96364932" stroke-linecap="round" stroke-linejoin="round">
                        <g id="Voicemail-icon" transform="translate(14.727370, 16.721311)">
                            <g>
                                <path d="M9.91430857,5.16360124 C9.91430857,7.906208 7.69592687,10.1303291 4.95710514,10.1303291 C2.21877486,10.1303291 -9.82889546e-05,7.906208 -9.82889546e-05,5.16360124 C-9.82889546e-05,2.42099449 2.21877486,0.196873352 4.95710514,0.196873352 C7.69592687,0.196873352 9.91430857,2.42099449 9.91430857,5.16360124 L9.91430857,5.16360124 Z" id="Stroke-821"></path>
                                <path d="M25.5583229,5.16360124 C25.5583229,7.906208 23.3399412,10.1303291 20.6011195,10.1303291 C17.8627892,10.1303291 15.643916,7.906208 15.643916,5.16360124 C15.643916,2.42099449 17.8627892,0.196873352 20.6011195,0.196873352 C23.3399412,0.196873352 25.5583229,2.42099449 25.5583229,5.16360124 L25.5583229,5.16360124 Z" id="Stroke-822"></path>
                                <path d="M20.5568436,10.1311475 L5.08374399,10.1615148" id="Stroke-825"></path>
                            </g>
                        </g>
                        <g id="Folder-Pending-to-re-do" transform="translate(-0.000000, 0.000000)">
                            <path d="M4.90912331,37.3093371 L39.2729865,37.3093371 C42.5238079,37.3093371 45.1639344,34.6701924 45.1639344,31.4183892 L45.1639344,7.85459729 L9.81824661,7.85459729 L9.81824661,32.4002138 C9.81824661,35.1120135 7.61797755,37.3093371 4.90912331,37.3093371 C2.19535994,37.3093371 0,35.1120135 0,32.4002138 L0,0 L13.7455453,0 L13.7455453,3.92729865 L39.2729865,3.92729865 L39.2729865,7.85459729" id="Stroke-2825"></path>
                        </g>
                    </g>
                </g>
            </g>
        </g>
    </g>
</svg>