<?xml version="1.0" encoding="UTF-8" standalone="no"?>
<svg width="97px" height="97px" viewBox="0 0 97 97" version="1.1" xmlns="http://www.w3.org/2000/svg" xmlns:xlink="http://www.w3.org/1999/xlink" xmlns:sketch="http://www.bohemiancoding.com/sketch/ns">
    <!-- Generator: Sketch 3.1 (8751) - http://www.bohemiancoding.com/sketch -->
    <title>Oval 19 + Fill 2152</title>
    <desc>Created with Sketch.</desc>
    <defs></defs>
    <g id="Page-1" stroke="none" stroke-width="1" fill="none" fill-rule="evenodd" sketch:type="MSPage">
        <g id="FEATURES" sketch:type="MSLayerGroup" transform="translate(-418.000000, -578.000000)">
            <g id="Icons" transform="translate(419.000000, 342.000000)" sketch:type="MSShapeGroup">
                <g id="Oval-19-+-Fill-2152" transform="translate(0.000000, 237.000000)">
                    <circle id="Oval-19" stroke="#FF3A32" stroke-width="1.55737705" cx="47.5" cy="47.5" r="47.5"></circle>
                    <path d="M29.5882172,40.4918033 C29.5882172,32.8606557 35.8800205,26.4754098 43.6046107,26.4754098 C51.3292008,26.4754098 57.6210041,32.8606557 57.6210041,40.4918033 C57.6210041,48.2786885 51.3292008,54.5081967 43.6046107,54.5081967 C35.8800205,54.5081967 29.5882172,48.2786885 29.5882172,40.4918033 L29.5882172,40.4918033 Z M68.0710041,65.8770492 L55.2382172,53.105 C58.6021516,49.9918033 60.7357582,45.4754098 60.7357582,40.4918033 C60.7357582,31.147541 53.0578893,23.3622131 43.6046107,23.3622131 C34.151332,23.3622131 26.4734631,31.147541 26.4734631,40.4918033 C26.4734631,49.9918033 34.151332,57.6229508 43.6046107,57.6229508 C46.9685451,57.6229508 50.098873,56.690082 52.7464139,54.9754098 L65.8595287,68.057377 C66.1710041,68.3704098 66.5603484,68.5245902 66.9652664,68.5245902 C67.3701844,68.5245902 67.7595287,68.3704098 68.0710041,68.057377 C68.6783811,67.5901639 68.6783811,66.5 68.0710041,65.8770492 L68.0710041,65.8770492 Z" id="Fill-2152" fill="#FF3A32"></path>
                </g>
            </g>
        </g>
    </g>
</svg>