<?xml version="1.0" encoding="UTF-8" standalone="no"?>
<svg width="99px" height="99px" viewBox="0 0 99 99" version="1.1" xmlns="http://www.w3.org/2000/svg" xmlns:xlink="http://www.w3.org/1999/xlink" xmlns:sketch="http://www.bohemiancoding.com/sketch/ns">
    <!-- Generator: Sketch 3.1 (8751) - http://www.bohemiancoding.com/sketch -->
    <title>David Profile Pix</title>
    <desc>Created with Sketch.</desc>
    <defs>
        <circle id="path-1" cx="47.5" cy="47.5" r="47.5"></circle>
    </defs>
    <g id="Page-1" stroke="none" stroke-width="1" fill="none" fill-rule="evenodd" sketch:type="MSPage">
        <g id="FEATURES" sketch:type="MSLayerGroup" transform="translate(-1128.000000, -818.000000)">
            <g id="Icons" transform="translate(419.000000, 342.000000)">
                <g id="David-Profile-Pix" transform="translate(711.000000, 478.000000)">
                    <mask id="mask-2" sketch:name="Mask" fill="white">
                        <use xlink:href="#path-1"></use>
                    </mask>
                    <use id="Mask" stroke="#FF3A32" stroke-width="1.44" fill="#FFFFFF" sketch:type="MSShapeGroup" xlink:href="#path-1"></use>
                    <path d="M73.212381,59.5895238 C71.5114286,56.1895238 65.9161905,54.1428571 58.172381,51.3038095 C57.0780952,50.9047619 55.94,50.4952381 54.7619048,50.0466667 L54.7619048,43.8942857 C55.5361905,43.047619 57.4952381,40.532381 57.687619,36.6190476 C58.2257143,36.2095238 58.6561905,35.4285714 58.9047619,34.3809524 C59.3,32.7038095 59.0914286,30.7142857 57.8590476,29.6085714 C57.9419048,29.3895238 58.0447619,29.132381 58.14,28.8942857 C59.0514286,26.5895238 60.747619,22.3142857 60.0857143,19 C59.3352381,15.2466667 53.872381,13.5714286 48.792381,13.5714286 C45.0809524,13.5714286 40.5628571,14.5038095 39.2714286,17.0657143 C37.8438095,17.1895238 36.7514286,17.7609524 36.0171429,18.7514286 C34.0047619,21.4666667 35.4961905,26.38 36.2971429,29.0285714 C36.3533333,29.2085714 36.4133333,29.4085714 36.4628571,29.5704762 C35.1990476,30.6752381 34.9828571,32.6847619 35.3809524,34.3809524 C35.6295238,35.4285714 36.0609524,36.2095238 36.5990476,36.6190476 C36.7885714,40.4571429 38.7028571,42.7142857 39.5238095,43.5133333 L39.5238095,50.0466667 C38.3457143,50.4952381 37.2047619,50.9047619 36.1085714,51.3133333 C28.3657143,54.1428571 22.7704762,56.1895238 21.0733333,59.5895238 C18.6,64.532381 18.5714286,69.5514286 18.5714286,69.7609524 C18.5714286,70.2847619 18.9980952,70.7142857 19.5238095,70.7142857 L74.7619048,70.7142857 C75.287619,70.7142857 75.7142857,70.2847619 75.7142857,69.7609524 C75.7142857,69.5514286 75.6866667,64.532381 73.212381,59.5895238" id="Fill-1648" fill="#F43E31" sketch:type="MSShapeGroup" mask="url(#mask-2)"></path>
                </g>
            </g>
        </g>
    </g>
</svg>