<?xml version="1.0" encoding="UTF-8" standalone="no"?>
<svg width="238px" height="234px" viewBox="0 0 238 234" version="1.1" xmlns="http://www.w3.org/2000/svg" xmlns:xlink="http://www.w3.org/1999/xlink" xmlns:sketch="http://www.bohemiancoding.com/sketch/ns">
    <!-- Generator: Sketch 3.1.1 (8761) - http://www.bohemiancoding.com/sketch -->
    <title>Group</title>
    <desc>Created with Sketch.</desc>
    <defs></defs>
    <g id="Page-1" stroke="none" stroke-width="1" fill="none" fill-rule="evenodd" sketch:type="MSPage">
        <g id="Group" sketch:type="MSLayerGroup">
            <rect id="Rectangle-124" fill="#EA2431" sketch:type="MSShapeGroup" x="0" y="0" width="238" height="234"></rect>
            <path d="M63.4909492,121.257179 C69.8772839,136.707408 77.7880387,152.084195 89.0799453,164.419408 C94.6532216,170.509375 101.359541,175.509244 109.105938,178.254949 C117.150747,181.103998 125.673222,180.032261 133.364148,176.714752 C148.393657,170.229769 158.723556,154.39449 166.254747,140.326556 C174.009875,125.836851 181.710829,109.375982 186.17058,93.49349 C187.359094,89.2605719 183.255525,85.4428836 179.133735,84.2845885 C174.942607,83.1074082 173.382522,86.1767854 172.194008,90.4086542 C171.445152,93.0704247 168.669419,96.6335412 167.808594,99.259115 C166.910275,102.00482 165.112459,103.327211 164.125284,106.040916 C163.563385,107.582687 162.984537,109.117638 162.394903,110.647867 C162.083136,111.459408 161.763665,112.267802 161.442654,113.076195 C161.188412,113.717769 159.826809,117.040523 160.882296,114.491015 C157.745113,122.070293 154.21193,129.489572 150.138934,136.591998 C148.062373,140.21272 145.812724,143.73167 143.377657,147.112654 C143.092085,147.509244 142.799836,147.902687 142.506047,148.296654 C141.973938,148.963933 141.365813,149.707277 140.750498,150.443802 C139.453097,152.000261 138.081222,153.490621 136.65593,154.923277 C135.388833,156.193834 134.054451,157.392523 132.672817,158.527211 C132.562903,158.597507 132.213642,158.847211 131.863354,159.096392 C131.062109,159.66872 130.232615,160.20013 129.39028,160.710031 C128.683541,161.137048 127.954202,161.528916 127.220241,161.903474 C126.857626,162.087605 126.487821,162.260195 126.119043,162.430687 C124.700941,163.086949 127.964475,161.668982 126.52172,162.246556 C124.915634,162.88813 123.245346,163.346621 121.552973,163.666621 C120.967961,163.778359 119.440459,163.939408 122.085082,163.611015 C121.688568,163.661375 121.292054,163.689703 120.894,163.72013 C120.097377,163.780457 119.297673,163.780457 118.500537,163.759998 C117.785066,163.741638 114.911883,163.378097 117.869813,163.798818 C116.966871,163.669769 116.075229,163.468851 115.192319,163.240654 C114.429595,163.045507 113.681766,162.797375 112.940101,162.536654 C112.566187,162.402359 112.197408,162.254949 111.829144,162.105966 C114.187681,163.054949 112.773689,162.514621 112.254934,162.27331 C110.641657,161.520523 109.106965,160.599867 107.625175,159.607343 C106.918949,159.133113 106.233782,158.626359 105.556833,158.110687 C107.720708,159.761048 105.286669,157.854162 104.800272,157.432392 C103.322078,156.146621 101.929657,154.759605 100.585004,153.329572 C99.2937664,151.957244 98.0718675,150.517769 96.8869492,149.049441 C96.5844278,148.675933 96.2875562,148.296654 95.9917119,147.916326 C95.3686924,147.087998 94.7045835,146.151605 94.0497197,145.211015 C89.2956652,138.378228 85.3176885,130.992523 81.7418753,123.459933 C80.7125835,121.2939 79.7290037,119.106359 78.7700776,116.904654 C78.341206,115.918949 77.9205524,114.927998 77.5045212,113.934949 C77.2230582,113.250359 77.0047703,112.707933 76.7869959,112.166031 C75.298529,108.457179 73.9035407,104.708982 72.5830271,100.93508 C71.366778,97.4580967 67.3921088,93.9564577 66.3854162,90.4086544 C65.185603,86.1809823 63.6476029,83.5847852 59.4467158,84.7640639 C55.3336574,85.9207852 52.7731178,93.2733583 53.9739583,97.5026042 C56.5435926,106.559129 59.9048636,112.582556 63.4909492,121.257179 Z" id="Imported-Layers" fill="#FFFFFF" sketch:type="MSShapeGroup"></path>
            <circle id="Oval-2" stroke="#FFFFFF" stroke-width="16" sketch:type="MSShapeGroup" cx="83.5" cy="86.5" r="23.5"></circle>
            <circle id="Oval-3" stroke="#FFFFFF" stroke-width="16" sketch:type="MSShapeGroup" cx="155.5" cy="86.5" r="23.5"></circle>
        </g>
    </g>
</svg>