<?xml version="1.0" encoding="UTF-8" standalone="no"?>
<svg width="105px" height="86px" viewBox="0 0 105 86" version="1.1" xmlns="http://www.w3.org/2000/svg" xmlns:xlink="http://www.w3.org/1999/xlink" xmlns:sketch="http://www.bohemiancoding.com/sketch/ns">
    <!-- Generator: Sketch 3.1.1 (8761) - http://www.bohemiancoding.com/sketch -->
    <title>3-logo - Twitter</title>
    <desc>Created with Sketch.</desc>
    <defs></defs>
    <g id="Page-1" stroke="none" stroke-width="1" fill="none" fill-rule="evenodd" sketch:type="MSPage">
        <g id="Screenshots" sketch:type="MSLayerGroup" transform="translate(-679.000000, -6122.000000)">
            <g id="3-logo---Twitter" transform="translate(679.000000, 6108.000000)">
                <g id="_x33_-logo_-_Twitter" transform="translate(0.000000, 14.746154)" fill="#FFFFFF" sketch:type="MSShapeGroup">
                    <path d="M95.15625,13.0453615 L101.71875,-0.00654230769 L91.875,6.52268077 L89.9521875,7.47785769 C86.0409375,2.93749615 80.311875,-0.00654230769 73.828125,-0.00654230769 C62.0484375,-0.00654230769 52.5,7.85731154 52.5,19.5745846 C52.5,21.1643654 52.71,24.3373846 53.0446875,25.8290308 L52.5,26.0972654 C52.5,26.0972654 9.84375,19.5745846 6.5625,3.25806923 C6.5625,3.25806923 -3.28125,19.5745846 13.125,32.6264885 C13.125,32.6264885 6.5625,35.8911 3.28125,32.6264885 C3.28125,32.6264885 3.28125,42.4137808 19.6875,52.2076154 C19.6875,52.2076154 13.125,55.4656846 9.84375,52.2076154 C9.84375,52.2076154 22.96875,65.2529769 29.53125,65.2529769 C29.53125,65.2529769 29.53125,75.0468115 0,75.0468115 C0,75.0468115 37.3340625,99.5085 72.1875,71.7822 C89.8996875,57.6900692 94.2178125,39.8230269 94.4540625,26.3589577 C94.8609375,24.7037538 95.15625,22.9962115 95.15625,21.2036192 L95.15625,19.5745846 L105,9.78075 L95.15625,13.0453615 L95.15625,13.0453615 Z" id="Shape"></path>
                </g>
                <g id="Layer_1" transform="translate(0.833333, 0.000000)"></g>
            </g>
        </g>
    </g>
</svg>