<?xml version="1.0" encoding="UTF-8" standalone="no"?>
<svg width="238px" height="234px" viewBox="0 0 238 234" version="1.1" xmlns="http://www.w3.org/2000/svg" xmlns:xlink="http://www.w3.org/1999/xlink" xmlns:sketch="http://www.bohemiancoding.com/sketch/ns">
    <!-- Generator: Sketch 3.0.4 (8053) - http://www.bohemiancoding.com/sketch -->
    <title>Veem Logo 2</title>
    <desc>Created with Sketch.</desc>
    <defs></defs>
    <g id="Page-1" stroke="none" stroke-width="1" fill="none" fill-rule="evenodd" sketch:type="MSPage">
        <g id="Veem-Logo-2" sketch:type="MSLayerGroup">
            <rect id="Rectangle-20" fill="#EA2331" sketch:type="MSShapeGroup" x="0" y="0" width="238" height="234" rx="8.64"></rect>
            <path d="M62.4909492,121.257179 C68.8772839,136.707408 76.7880387,152.084195 88.0799453,164.419408 C93.6532216,170.509375 100.359541,175.509244 108.105938,178.254949 C116.150747,181.103998 124.673222,180.032261 132.364148,176.714752 C147.393657,170.229769 157.723556,154.39449 165.254747,140.326556 C173.009875,125.836851 180.710829,109.375982 185.17058,93.49349 C186.359094,89.2605719 182.255525,85.4428836 178.133735,84.2845885 C173.942607,83.1074082 172.382522,86.1767854 171.194008,90.4086542 C170.445152,93.0704247 167.669419,96.6335412 166.808594,99.259115 C165.910275,102.00482 164.112459,103.327211 163.125284,106.040916 C162.563385,107.582687 161.984537,109.117638 161.394903,110.647867 C161.083136,111.459408 160.763665,112.267802 160.442654,113.076195 C160.188412,113.717769 158.826809,117.040523 159.882296,114.491015 C156.745113,122.070293 153.21193,129.489572 149.138934,136.591998 C147.062373,140.21272 144.812724,143.73167 142.377657,147.112654 C142.092085,147.509244 141.799836,147.902687 141.506047,148.296654 C140.973938,148.963933 140.365813,149.707277 139.750498,150.443802 C138.453097,152.000261 137.081222,153.490621 135.65593,154.923277 C134.388833,156.193834 133.054451,157.392523 131.672817,158.527211 C131.562903,158.597507 131.213642,158.847211 130.863354,159.096392 C130.062109,159.66872 129.232615,160.20013 128.39028,160.710031 C127.683541,161.137048 126.954202,161.528916 126.220241,161.903474 C125.857626,162.087605 125.487821,162.260195 125.119043,162.430687 C123.700941,163.086949 126.964475,161.668982 125.52172,162.246556 C123.915634,162.88813 122.245346,163.346621 120.552973,163.666621 C119.967961,163.778359 118.440459,163.939408 121.085082,163.611015 C120.688568,163.661375 120.292054,163.689703 119.894,163.72013 C119.097377,163.780457 118.297673,163.780457 117.500537,163.759998 C116.785066,163.741638 113.911883,163.378097 116.869813,163.798818 C115.966871,163.669769 115.075229,163.468851 114.192319,163.240654 C113.429595,163.045507 112.681766,162.797375 111.940101,162.536654 C111.566187,162.402359 111.197408,162.254949 110.829144,162.105966 C113.187681,163.054949 111.773689,162.514621 111.254934,162.27331 C109.641657,161.520523 108.106965,160.599867 106.625175,159.607343 C105.918949,159.133113 105.233782,158.626359 104.556833,158.110687 C106.720708,159.761048 104.286669,157.854162 103.800272,157.432392 C102.322078,156.146621 100.929657,154.759605 99.5850037,153.329572 C98.2937664,151.957244 97.0718675,150.517769 95.8869492,149.049441 C95.5844278,148.675933 95.2875562,148.296654 94.9917119,147.916326 C94.3686924,147.087998 93.7045835,146.151605 93.0497197,145.211015 C88.2956652,138.378228 84.3176885,130.992523 80.7418753,123.459933 C79.7125835,121.2939 78.7290037,119.106359 77.7700776,116.904654 C77.341206,115.918949 76.9205524,114.927998 76.5045212,113.934949 C76.2230582,113.250359 76.0047703,112.707933 75.7869959,112.166031 C74.298529,108.457179 72.9035407,104.708982 71.5830271,100.93508 C70.366778,97.4580967 66.3921088,93.9564577 65.3854162,90.4086544 C64.185603,86.1809823 62.6476029,83.5847852 58.4467158,84.7640639 C54.3336574,85.9207852 51.7731178,93.2733583 52.9739583,97.5026042 C55.5435926,106.559129 58.9048636,112.582556 62.4909492,121.257179 Z" id="Imported-Layers" fill="#FFFFFF" sketch:type="MSShapeGroup"></path>
            <circle id="Oval-2" stroke="#FFFFFF" stroke-width="16" sketch:type="MSShapeGroup" cx="82.5" cy="86.5" r="23.5"></circle>
            <circle id="Oval-3" stroke="#FFFFFF" stroke-width="16" sketch:type="MSShapeGroup" cx="154.5" cy="86.5" r="23.5"></circle>
        </g>
    </g>
</svg>