<?xml version="1.0" encoding="UTF-8" standalone="no"?>
<svg width="238px" height="234px" viewBox="0 0 238 234" version="1.1" xmlns="http://www.w3.org/2000/svg" xmlns:xlink="http://www.w3.org/1999/xlink" xmlns:sketch="http://www.bohemiancoding.com/sketch/ns">
    <!-- Generator: Sketch 3.1.1 (8761) - http://www.bohemiancoding.com/sketch -->
    <title>logo</title>
    <desc>Created with Sketch.</desc>
    <defs></defs>
    <g id="Page-1" stroke="none" stroke-width="1" fill="none" fill-rule="evenodd" sketch:type="MSPage">
        <g id="logo" sketch:type="MSLayerGroup">
            <rect id="Rectangle-124" fill="#EA2431" sketch:type="MSShapeGroup" x="0" y="0" width="238" height="234"></rect>
            <g id="Imported-Layers-+-Oval-2-+-Oval-3" transform="translate(54.000000, 63.000000)" sketch:type="MSShapeGroup">
                <path d="M9.49094924,58.2571787 C15.8772839,73.7074082 23.7880387,89.0841951 35.0799453,101.419408 C40.6532216,107.509375 47.3595407,112.509244 55.1059376,115.254949 C63.1507469,118.103998 71.6732216,117.032261 79.3641477,113.714752 C94.3936574,107.229769 104.723556,91.3944902 112.254747,77.3265557 C120.009875,62.8368508 127.710829,46.3759818 132.17058,30.49349 C133.359094,26.2605719 129.255525,22.4428836 125.133735,21.2845885 C120.942607,20.1074082 119.382522,23.1767854 118.194008,27.4086542 C117.445152,30.0704247 114.669419,33.6335412 113.808594,36.259115 C112.910275,39.0048199 111.112459,40.3272115 110.125284,43.0409164 C109.563385,44.5826869 108.984537,46.1176377 108.394903,47.6478672 C108.083136,48.4594082 107.763665,49.2678016 107.442654,50.0761951 C107.188412,50.7177689 105.826809,54.040523 106.882296,51.4910148 C103.745113,59.0702934 100.21193,66.4895721 96.1389337,73.5919984 C94.0623734,77.2127197 91.8127236,80.7316705 89.3776574,84.1126541 C89.0920854,84.5092443 88.7998364,84.9026869 88.5060465,85.2966541 C87.9739376,85.9639328 87.3658131,86.707277 86.7504979,87.4438016 C85.4530971,89.0002607 84.0812216,90.4906213 82.6559298,91.923277 C81.3888325,93.1938344 80.0544512,94.392523 78.6728169,95.5272115 C78.5629025,95.5975066 78.2136418,95.8472115 77.8633539,96.0963918 C77.0621088,96.6687197 76.2326146,97.2001295 75.39028,97.7100311 C74.6835407,98.1370475 73.9542022,98.5289164 73.2202411,98.9034738 C72.8576263,99.0876049 72.4878208,99.2601951 72.1190426,99.4306869 C70.7009415,100.086949 73.9644745,98.668982 72.5217197,99.2465557 C70.9156341,99.8881295 69.2453461,100.346621 67.5529726,100.666621 C66.9679609,100.778359 65.440459,100.939408 68.0850815,100.611015 C67.6885679,100.661375 67.2920543,100.689703 66.8939998,100.72013 C66.0973773,100.780457 65.297673,100.780457 64.5005368,100.759998 C63.785066,100.741638 60.9118831,100.378097 63.8698131,100.798818 C62.9668714,100.669769 62.0752294,100.468851 61.1923189,100.240654 C60.4295952,100.045507 59.6817664,99.7973754 58.940101,99.5366541 C58.5661866,99.402359 58.1974084,99.2549492 57.8291438,99.1059656 C60.1876808,100.054949 58.7736885,99.5146213 58.2549337,99.2733098 C56.6416574,98.520523 55.1069648,97.5998672 53.6251749,96.6073426 C52.9189492,96.1331131 52.2337819,95.626359 51.5568325,95.1106869 C53.720708,96.7610475 51.2866691,94.8541623 50.8002722,94.4323918 C49.3220776,93.1466213 47.9296574,91.7596049 46.5850037,90.3295721 C45.2937664,88.9572443 44.0718675,87.5177689 42.8869492,86.049441 C42.5844278,85.6759328 42.2875562,85.2966541 41.9917119,84.9163262 C41.3686924,84.0879984 40.7045835,83.1516049 40.0497197,82.2110148 C35.2956652,75.3782279 31.3176885,67.992523 27.7418753,60.4599328 C26.7125835,58.2939 25.7290037,56.106359 24.7700776,53.9046541 C24.341206,52.9189492 23.9205524,51.9279984 23.5045212,50.9349492 C23.2230582,50.250359 23.0047703,49.7079328 22.7869959,49.1660311 C21.298529,45.4571787 19.9035407,41.708982 18.5830271,37.9350803 C17.366778,34.4580967 13.3921088,30.9564577 12.3854162,27.4086544 C11.185603,23.1809823 9.64760294,20.5847852 5.44671578,21.7640639 C1.33365741,22.9207852 -1.22688215,30.2733583 -0.0260416846,34.5026042 C2.54359256,43.5591288 5.90486364,49.5825557 9.49094924,58.2571787 Z" id="Imported-Layers" fill="#FFFFFF"></path>
                <circle id="Oval-2" stroke="#FFFFFF" stroke-width="16" cx="29.5" cy="23.5" r="23.5"></circle>
                <circle id="Oval-3" stroke="#FFFFFF" stroke-width="16" cx="101.5" cy="23.5" r="23.5"></circle>
            </g>
        </g>
    </g>
</svg>