<?xml version="1.0" encoding="utf-8"?>
<!-- Generator: Adobe Illustrator 17.0.2, SVG Export Plug-In . SVG Version: 6.00 Build 0)  -->
<!DOCTYPE svg PUBLIC "-//W3C//DTD SVG 1.1//EN" "http://www.w3.org/Graphics/SVG/1.1/DTD/svg11.dtd">
<svg version="1.1" id="Layer_1" xmlns="http://www.w3.org/2000/svg" xmlns:xlink="http://www.w3.org/1999/xlink" x="0px" y="0px"
	 width="400px" height="400px" viewBox="0 0 400 400" enable-background="new 0 0 400 400" xml:space="preserve">
<symbol  id="App_Icon" viewBox="-517.548 -512.355 1027.271 1022.501">
	<linearGradient id="SVGID_1_" gradientUnits="userSpaceOnUse" x1="508.5307" y1="-513.5478" x2="-516.3553" y2="511.3382">
		<stop  offset="0" style="stop-color:#F64D15"/>
		<stop  offset="0.1463" style="stop-color:#F4451C"/>
		<stop  offset="0.3724" style="stop-color:#EE2F2F"/>
		<stop  offset="0.5003" style="stop-color:#EA203D"/>
		<stop  offset="0.7223" style="stop-color:#E9203B"/>
		<stop  offset="0.8345" style="stop-color:#E52133"/>
		<stop  offset="0.9218" style="stop-color:#DE2326"/>
		<stop  offset="0.9962" style="stop-color:#D42613"/>
		<stop  offset="1" style="stop-color:#D32612"/>
	</linearGradient>
	<polygon fill="url(#SVGID_1_)" points="509.723,-512.355 -517.548,-512.355 -517.548,510.146 509.723,510.146 	"/>
	<g>
		<g>
			<path fill="#FFFFFF" d="M180.794,301.034c-58.78-0.34-113.406-32.495-143.226-82.982c-29.894-50.611-29.736-115.517,0-166.095
				c29.53-50.227,85.303-80.866,143.226-81.186c58.589-0.324,113.66,32.925,143.226,82.982
				c14.368,24.326,21.811,52.432,22.615,80.579c0.802,28.082-7.754,56.38-21.463,80.669
				C296.182,266.362,239.891,300.65,180.794,301.034c-23.297,0.152-42.735-19.554-42.735-42.735
				c0-23.411,19.442-42.584,42.735-42.735c4.914-0.032,9.792-0.346,14.67-0.947c-3.787,0.509-7.574,1.018-11.361,1.527
				c10.46-1.423,20.583-4.188,30.339-8.214c-3.403,1.436-6.806,2.872-10.209,4.308c9.976-4.253,19.292-9.708,27.938-16.252
				c-2.883,2.227-5.766,4.455-8.649,6.682c9.223-7.138,17.445-15.354,24.604-24.56c-2.227,2.883-4.455,5.766-6.682,8.649
				c6.667-8.759,12.239-18.208,16.581-28.326c-1.436,3.403-2.872,6.806-4.308,10.209c3.966-9.533,6.745-19.429,8.141-29.665
				c-0.509,3.787-1.018,7.574-1.527,11.361c1.224-9.902,1.039-19.827-0.259-29.713c0.509,3.787,1.018,7.574,1.527,11.361
				c-1.528-10.703-4.393-21.079-8.553-31.057c1.436,3.403,2.872,6.806,4.308,10.209c-4.201-9.78-9.546-18.936-15.981-27.415
				c2.227,2.883,4.455,5.766,6.682,8.649c-6.77-8.731-14.55-16.52-23.279-23.293c2.883,2.227,5.766,4.455,8.649,6.682
				c-8.498-6.451-17.681-11.798-27.501-15.973c3.403,1.436,6.806,2.872,10.209,4.308c-9.648-3.978-19.663-6.727-29.991-8.225
				c3.787,0.509,7.574,1.018,11.361,1.527c-11.118-1.482-22.294-1.47-33.418-0.048c3.787-0.509,7.574-1.018,11.361-1.527
				c-10.748,1.495-21.181,4.301-31.222,8.417c3.403-1.436,6.806-2.872,10.209-4.308c-10.144,4.287-19.622,9.81-28.351,16.524
				c2.883-2.227,5.766-4.455,8.649-6.682c-8.225,6.466-15.578,13.851-21.997,22.113c2.227-2.883,4.455-5.766,6.682-8.649
				c-6.351,8.358-11.602,17.397-15.694,27.065c1.436-3.403,2.872-6.806,4.308-10.209c-3.897,9.497-6.58,19.354-8.04,29.515
				c0.509-3.787,1.018-7.574,1.527-11.361c-1.447,10.961-1.44,21.974,0,32.936c-0.509-3.787-1.018-7.574-1.527-11.361
				c1.528,10.703,4.393,21.079,8.553,31.057c-1.436-3.403-2.872-6.806-4.308-10.209c4.201,9.78,9.546,18.936,15.98,27.415
				c-2.227-2.883-4.455-5.766-6.682-8.649c6.77,8.731,14.55,16.52,23.279,23.293c-2.883-2.227-5.766-4.455-8.649-6.682
				c8.498,6.451,17.681,11.798,27.501,15.973c-3.403-1.436-6.806-2.872-10.209-4.308c9.648,3.978,19.663,6.727,29.991,8.225
				c-3.787-0.509-7.574-1.018-11.361-1.527c5.55,0.74,11.11,1.122,16.709,1.154c23.294,0.135,42.735,19.337,42.735,42.735
				C223.529,281.493,204.091,301.169,180.794,301.034L180.794,301.034z"/>
			<path fill="#FFFFFF" d="M-188.619,302.246c-58.78-0.34-113.406-32.495-143.226-82.982c-29.894-50.611-29.736-115.517,0-166.095
				c29.53-50.227,85.303-80.866,143.226-81.186c58.221-0.322,113.311,31.541,143.226,81.186c30.435,50.508,29.201,115.442,0,166.095
				C-74.588,269.909-130.315,301.909-188.619,302.246c-23.297,0.135-42.735-19.541-42.735-42.735
				c0-23.398,19.441-42.6,42.735-42.735c5.599-0.032,11.159-0.414,16.709-1.154c-3.787,0.509-7.574,1.018-11.361,1.527
				c10.328-1.497,20.343-4.247,29.991-8.225c-3.403,1.436-6.806,2.872-10.209,4.308c9.82-4.175,19.003-9.522,27.501-15.973
				c-2.883,2.227-5.766,4.455-8.649,6.682c8.729-6.773,16.509-14.562,23.279-23.293c-2.227,2.883-4.455,5.766-6.682,8.649
				c6.434-8.479,11.78-17.634,15.981-27.415c-1.436,3.403-2.872,6.806-4.308,10.209c4.159-9.979,7.024-20.354,8.553-31.057
				c-0.509,3.787-1.018,7.574-1.527,11.361c1.44-10.961,1.447-21.975,0-32.936c0.509,3.787,1.018,7.574,1.527,11.361
				c-1.46-10.161-4.143-20.018-8.04-29.515c1.436,3.403,2.872,6.806,4.308,10.209c-4.092-9.668-9.343-18.707-15.694-27.065
				c2.227,2.883,4.455,5.766,6.682,8.649c-6.419-8.263-13.772-15.647-21.997-22.113c2.883,2.227,5.766,4.455,8.649,6.682
				c-8.729-6.714-18.207-12.237-28.351-16.524c3.403,1.436,6.806,2.872,10.209,4.308c-10.041-4.116-20.474-6.922-31.222-8.417
				c3.787,0.509,7.574,1.018,11.361,1.527c-11.121-1.422-22.297-1.422-33.418,0c3.787-0.509,7.574-1.018,11.361-1.527
				c-10.748,1.495-21.181,4.301-31.222,8.417c3.403-1.436,6.806-2.872,10.209-4.308c-10.144,4.287-19.622,9.81-28.351,16.524
				c2.883-2.227,5.766-4.455,8.649-6.682c-8.225,6.466-15.578,13.851-21.997,22.113c2.227-2.883,4.455-5.766,6.682-8.649
				c-6.351,8.358-11.602,17.397-15.694,27.065c1.436-3.403,2.872-6.806,4.308-10.209c-3.897,9.497-6.58,19.354-8.04,29.515
				c0.509-3.787,1.018-7.574,1.527-11.361c-1.447,10.961-1.44,21.974,0,32.936c-0.509-3.787-1.018-7.574-1.527-11.361
				c1.528,10.703,4.393,21.079,8.553,31.057c-1.436-3.403-2.872-6.806-4.308-10.209c4.201,9.78,9.546,18.936,15.98,27.415
				c-2.227-2.883-4.455-5.766-6.682-8.649c6.77,8.731,14.55,16.52,23.279,23.293c-2.883-2.227-5.766-4.455-8.649-6.682
				c8.498,6.451,17.681,11.798,27.501,15.973c-3.403-1.436-6.806-2.872-10.209-4.308c9.648,3.978,19.663,6.727,29.991,8.225
				c-3.787-0.509-7.574-1.018-11.361-1.527c5.55,0.74,11.11,1.122,16.709,1.154c23.294,0.135,42.735,19.337,42.735,42.735
				C-145.883,282.705-165.322,302.381-188.619,302.246L-188.619,302.246z"/>
			<path fill="#FFFFFF" d="M-347.662,89.277c8.725-29.654,19.522-58.803,30.835-87.546c24.996-63.512,53.691-126.151,90.675-183.66
				c19.758-30.724,42.015-60.503,67.779-86.471c13.202-13.307,27.711-25.211,42.907-36.173
				c14.651-10.569,30.332-18.271,46.962-25.211c32.516-13.569,68.381-15.322,102.675-8.423
				c35.298,7.101,66.312,26.425,93.982,48.615c27.886,22.363,50.737,50.41,71.685,79.171c20.27,27.829,37.818,57.6,53.736,88.099
				c28.56,54.725,52.253,112.253,72.328,170.603c4.944,14.372,9.678,28.829,13.936,43.42c6.524,22.354-7.661,46.467-29.848,52.569
				c-22.715,6.248-46.048-7.502-52.569-29.848c-9.072-31.087-19.958-61.69-31.672-91.869c-4.36-11.231-8.886-22.398-13.563-33.5
				c1.436,3.403,2.872,6.806,4.308,10.209c-26.109-61.837-56.897-122.767-97.725-176.301c-0.408-0.534-0.818-1.068-1.228-1.6
				c2.227,2.883,4.455,5.766,6.682,8.649c-17.625-22.811-37.284-44.252-60.085-61.994c2.883,2.227,5.766,4.455,8.649,6.682
				c-13.429-10.37-27.903-19.359-43.533-26.021c3.403,1.436,6.806,2.872,10.209,4.308c-11.888-4.993-24.298-8.551-37.08-10.312
				c3.787,0.509,7.574,1.018,11.361,1.527c-11.645-1.53-23.396-1.551-35.041-0.002c3.787-0.509,7.574-1.018,11.361-1.527
				c-12.352,1.722-24.345,5.162-35.846,9.962c3.403-1.436,6.806-2.872,10.209-4.308c-15.521,6.574-29.893,15.473-43.236,25.733
				c2.883-2.227,5.766-4.455,8.649-6.682c-23.013,17.831-42.846,39.427-60.648,62.379c2.227-2.883,4.455-5.766,6.682-8.649
				c-41.12,53.245-72.304,113.911-98.895,175.487c-1.329,3.077-2.641,6.161-3.945,9.248c1.436-3.403,2.872-6.806,4.308-10.209
				c-15.569,36.942-29.763,74.61-41.549,112.942c-0.35,1.139-0.7,2.279-1.036,3.423c-6.57,22.331-29.817,36.106-52.569,29.848
				C-339.964,135.753-354.235,111.618-347.662,89.277L-347.662,89.277z"/>
		</g>
	</g>
</symbol>
<defs>
	<filter id="Adobe_OpacityMaskFilter" filterUnits="userSpaceOnUse" x="5.136" y="4.098" width="390.029" height="388.218">
		<feColorMatrix  type="matrix" values="1 0 0 0 0  0 1 0 0 0  0 0 1 0 0  0 0 0 1 0"/>
	</filter>
</defs>
<mask maskUnits="userSpaceOnUse" x="5.136" y="4.098" width="390.029" height="388.218" id="XMLID_3_">
	<g filter="url(#Adobe_OpacityMaskFilter)">
		<path fill="#FFFFFF" d="M142.791,3.394H260.48c39.035,0,58.546,0,79.555,6.633c22.942,8.354,41.007,26.419,49.355,49.361
			c6.639,21.004,6.639,40.523,6.639,79.549v117.696c0,39.026,0,58.542-6.639,79.552c-8.348,22.942-26.413,41.007-49.355,49.355
			c-21.009,6.642-40.52,6.642-79.555,6.642H142.791c-39.033,0-58.546,0-79.555-6.642c-22.939-8.348-41.004-26.413-49.355-49.355
			c-6.639-21.01-6.639-40.525-6.639-79.552V138.937c0-39.026,0-58.545,6.639-79.549c8.351-22.942,26.416-41.007,49.355-49.361
			C84.246,3.394,103.758,3.394,142.791,3.394L142.791,3.394"/>
	</g>
</mask>
<g mask="url(#XMLID_3_)">
	
		<use xlink:href="#App_Icon"  width="1027.271" height="1022.501" id="XMLID_2_" x="-517.548" y="-512.355" transform="matrix(0.3797 0 0 -0.3797 201.6356 197.7873)" overflow="visible"/>
</g>
</svg>
